<?xml version="1.0" encoding="UTF-8"?>
<!DOCTYPE svg PUBLIC "-//W3C//DTD SVG 1.1//EN" "http://www.w3.org/Graphics/SVG/1.1/DTD/svg11.dtd">
<svg version="1.1" xmlns="http://www.w3.org/2000/svg" xmlns:xlink="http://www.w3.org/1999/xlink" x="0" y="0" width="700" height="700" viewBox="0, 0, 700, 700">
  <g id="Background">
    <rect x="0" y="0" width="700" height="700" fill="#FFFFFF" fill-opacity="0"/>
  </g>
  <g id="Layer_1">
    <g>
      <path d="M0,0 L700,0 L700,700 L0,700 z" fill="#000000"/>
      <path d="M0,0 L700,0 L700,700 L0,700 z" fill-opacity="0" stroke="#000000" stroke-width="1"/>
    </g>
  </g>
  <g id="Body1" display="none">
    <g>
      <path d="M355,577 C252,577 167,469 167,337 C167,204 252,96 355,96 C459,96 544,204 544,337 C544,469 459,577 355,577 z" fill="#CD0000"/>
      <path d="M355,577 C252,577 167,469 167,337 C167,204 252,96 355,96 C459,96 544,204 544,337 C544,469 459,577 355,577 z" fill-opacity="0" stroke="#000000" stroke-width="1"/>
    </g>
  </g>
  <g id="Body2" display="none">
    <path d="M226,81 L516,82 L515,574 L225,574 z" fill="#CD0000"/>
  </g>
  <g id="Body3" display="none">
    <path d="M111,581 L362,66 L614,581 z" fill="#CD0000"/>
  </g>
  <g id="Body4" display="none">
    <path d="M261,99 L471,99 C519,99 559,135 559,180 L559,479 C559,523 519,559 471,559 L261,559 C212,559 173,523 173,479 L173,180 C173,135 212,99 261,99 z" fill="#CD0000"/>
  </g>
  <g id="Body5" display="none">
    <path d="M313,643 L300,522 L218,609 L243,489 L138,544 L199,439 L83,455 L173,377 L58,352 L167,309 L67,247 L183,243 L107,150 L219,186 L176,72 L270,144 L264,21 L331,122 L364,4 L396,122 L463,21 L457,144 L552,72 L508,186 L620,150 L544,243 L660,247 L560,309 L669,352 L554,377 L644,455 L528,439 L589,544 L485,489 L509,609 L427,522 L414,643 L364,533 z" fill="#CD0000"/>
  </g>
  <g id="Body6" display="none">
    <path d="M230,555 L96,324 L230,92 L497,92 L631,324 L497,555 z" fill="#CD0000"/>
  </g>
  <g id="Body7" display="none">
    <path d="M623,91 L373,608 L119,94 z" fill="#CD0000"/>
  </g>
  <g id="Body8">
    <path d="M516,414 C513,413 514,413 512,413 C503,414 490,435 485,441 C473,456 460,469 447,481 C410,514 368,539 326,562 C82,688 320,559 236,350 C152,140 460,426 515,222 C524,189 527,146 495,124 C467,103 423,103 389,103 C360,102 330,104 300,101 C280,99 257,96 241,81" fill="#CE0000"/>
  </g>
  <g id="Body9" display="none">
    <path d="M240,109 C271,63 499,107 519,196 C447,139 381,299 385,311 C389,322 624,455 616,451 C608,448 284,621 267,607" fill="#CE0000"/>
  </g>
  <g id="Body10" display="none">
    <path d="M174,116 C191,116 209,117 225,110 C234,107 241,101 240,91 C239,80 230,70 223,63 C210,50 195,39 181,28 C151,7 337,110 361,89 C578,-103 445,176 529,133 C614,90 495,161 497,288 C500,415 616,272 616,354 C616,446 314,343 378,553 C404,637 235,548 167,568 C131,578 356,316 286,292 C232,270 272,206 241,162 C232,150 189,118 174,116" fill="#CE0000"/>
  </g>
  <g id="Body11" display="none">
    <path d="M187,94 C279,148 601,7 519,103 C432,203 620,280 502,379 C456,418 618,597 544,607 C470,618 194,652 233,566 C273,479 372,485 253,379 C130,269 161,79 187,94 z" fill="#CE0000"/>
  </g>
  <g id="Body12" display="none">
    <path d="M432,29 C318,49 110,248 228,315 C304,358 461,145 503,174 C552,207 760,612 200,565" fill="#CE0000"/>
  </g>
  <g id="Body13" display="none">
    <path d="M591,162 C465,174 279,-69 239,236 C227,328 495,290 520,338 C547,392 572,782 88,409" fill="#CE0000"/>
  </g>
  <g id="Body14" display="none">
    <path d="M598,243 C623,166 301,-85 261,219 C249,311 108,235 133,282 C160,337 71,924 470,454" fill="#CE0000"/>
  </g>
  <g id="Mouth1">
    <path d="M320,425 L429,425 C452,425 470,442 470,464 L470,464 C470,485 452,502 429,502 L320,502 C297,502 279,485 279,464 L279,464 C279,442 297,425 320,425 z" fill="#000000"/>
  </g>
  <g id="Teeth1" fill="#FFFFFF" display="none">
    <path d="M317,502 L325,471 L333,502 z"/>
    <path d="M335,502 L343,471 L351,502 z"/>
    <path d="M351,502 L359,471 L367,502 z"/>
    <path d="M367,502 L375,471 L383,502 z"/>
    <path d="M383,502 L391,471 L399,502 z"/>
    <path d="M399,502 L407,471 L415,502 z"/>
    <path d="M415,502 L424,471 L432,502 z"/>
    <path d="M336,425 L328,456 L320,425 z"/>
    <path d="M352,425 L344,456 L336,425 z"/>
    <path d="M368,425 L360,456 L352,425 z"/>
    <path d="M385,425 L376,456 L368,425 z"/>
    <path d="M401,425 L392,456 L385,425 z"/>
    <path d="M417,425 L409,456 L401,425 z"/>
    <path d="M433,425 L425,456 L417,425 z"/>
  </g>
  <g id="Teeth2" fill="#FFFFFF" display="none">
    <path d="M335,502 L343,474 L351,502 z"/>
    <path d="M351,502 L359,474 L367,502 z"/>
    <path d="M367,502 L375,474 L383,502 z"/>
    <path d="M383,502 L391,474 L399,502 z"/>
    <path d="M399,502 L407,474 L415,502 z"/>
    <path d="M344,425 L377,425 L377,457 L344,457 z"/>
    <path d="M371,437 L371,437 L371,453 L371,453 z"/>
    <path d="M382,425 L415,425 L415,463 L382,463 z"/>
  </g>
  <g id="Teeth3" fill="#FFFFFF" display="none">
    <path d="M362,425 L353,479 L346,425 z"/>
    <path d="M407,425 L399,479 L391,425 z"/>
  </g>
  <g id="Teeth4" fill="#FFFFFF">
    <path d="M314,502 L322,410 L330,502 z"/>
    <path d="M410,502 L419,410 L427,502 z"/>
    <path d="M332,502 L338,484 L344,502 z"/>
    <path d="M349,502 L355,484 L361,502 z"/>
    <path d="M363,502 L369,484 L375,502 z"/>
    <path d="M379,502 L385,484 L391,502 z"/>
    <path d="M394,502 L400,484 L406,502 z"/>
  </g>
  <g id="Teeth5" fill="#FFFFFF" display="none">
    <path d="M353,483 L372,483 L372,502 L353,502 z"/>
    <path d="M377,479 L397,479 L397,502 L377,502 z"/>
    <path d="M401,483 L422,483 L422,502 L401,502 z"/>
    <path d="M327,425 L352,425 L352,439 L327,439 z"/>
    <path d="M359,425 L374,425 L374,448 L359,448 z"/>
    <path d="M383,425 L402,425 L402,448 L383,448 z"/>
    <path d="M408,425 L428,425 L428,445 L408,445 z"/>
    <path d="M330,479 L349,479 L349,502 L330,502 z"/>
  </g>
  <g id="Teeth6" fill="#FFFFFF" display="none">
    <path d="M353,483 L372,483 L372,502 L353,502 z"/>
    <path d="M377,479 L397,479 L397,502 L377,502 z"/>
    <path d="M401,483 L422,483 L422,502 L401,502 z"/>
    <path d="M350,425 L375,425 L375,454 L350,454 z"/>
    <path d="M382,425 L404,425 L404,458 L382,458 z"/>
    <path d="M330,479 L349,479 L349,502 L330,502 z"/>
  </g>
  <g id="Eyes1" display="none">
    <path d="M369,254 C335,254 307,226 307,191 C307,157 335,129 369,129 C403,129 430,157 430,191 C430,226 403,254 369,254 z" fill="#FFFFFF"/>
    <path d="M377,209 C368,209 361,201 361,192 C361,182 368,175 377,175 C386,175 394,182 394,192 C394,201 386,209 377,209 z" fill="#000000"/>
  </g>
  <g id="Eyes2" display="none">
    <path d="M290,246 C269,246 252,229 252,208 C252,187 269,170 290,170 C311,170 328,187 328,208 C328,229 311,246 290,246 z" fill="#FFFFFF"/>
    <path d="M295,219 C289,219 285,214 285,208 C285,203 289,198 295,198 C301,198 305,203 305,208 C305,214 301,219 295,219 z" fill="#000000"/>
    <path d="M394,246 C373,246 356,229 356,208 C356,188 373,171 394,171 C415,171 432,188 432,208 C432,229 415,246 394,246 z" fill="#FFFFFF"/>
    <path d="M392,219 C386,219 382,214 382,208 C382,203 386,198 392,198 C397,198 402,203 402,208 C402,214 397,219 392,219 z" fill="#000000"/>
  </g>
  <g id="Eyes3" display="none">
    <path d="M290,246 C269,246 252,229 252,208 C252,187 269,170 290,170 C311,170 328,187 328,208 C328,229 311,246 290,246 z" fill="#FFFFFF"/>
    <path d="M295,219 C289,219 285,214 285,208 C285,203 289,198 295,198 C301,198 305,203 305,208 C305,214 301,219 295,219 z" fill="#000000"/>
    <path d="M366,223 C345,223 328,207 328,186 C328,165 345,148 366,148 C387,148 404,165 404,186 C404,207 387,223 366,223 z" fill="#FFFFFF"/>
    <path d="M364,196 C358,196 354,191 354,186 C354,180 358,175 364,175 C369,175 374,180 374,186 C374,191 369,196 364,196 z" fill="#000000"/>
    <path d="M343,286 C325,286 311,272 311,254 C311,237 325,223 343,223 C360,223 374,237 374,254 C374,272 360,286 343,286 z" fill="#FFFFFF"/>
    <path d="M341,263 C336,263 333,259 333,254 C333,250 336,246 341,246 C345,246 349,250 349,254 C349,259 345,263 341,263 z" fill="#000000"/>
    <path d="M416,282 C397,284 380,270 377,251 C375,231 389,213 408,211 C427,209 445,223 447,243 C449,263 435,280 416,282 z" fill="#FFFFFF"/>
    <path d="M411,257 C406,257 402,253 401,248 C400,243 404,238 409,237 C414,237 419,241 419,246 C420,251 416,256 411,257 z" fill="#000000"/>
  </g>
  <g id="Eyes4" display="none">
    <path d="M294,229 C264,229 240,220 240,208 C240,196 264,186 294,186 C324,186 348,196 348,208 C348,220 324,229 294,229 z" fill="#FFFFFF"/>
    <path d="M295,219 C289,219 285,214 285,208 C285,203 289,198 295,198 C301,198 305,203 305,208 C305,214 301,219 295,219 z" fill="#000000"/>
    <path d="M403,226 C377,226 356,217 356,206 C356,195 377,186 403,186 C429,186 450,195 450,206 C450,217 429,226 403,226 z" fill="#FFFFFF"/>
    <path d="M393,219 C388,219 382,215 382,210 C381,204 385,199 390,198 C396,197 401,201 402,207 C403,213 399,218 393,219 z" fill="#000000"/>
  </g>
  <g id="Eyes5" display="none">
    <path d="M298,271 C287,271 279,246 279,215 C279,183 287,158 298,158 C309,158 318,183 318,215 C318,246 309,271 298,271 z" fill="#FFFFFF"/>
    <path d="M295,219 C289,219 285,214 285,208 C285,203 289,198 295,198 C301,198 305,203 305,208 C305,214 301,219 295,219 z" fill="#000000"/>
    <path d="M397,234 C368,234 344,221 344,204 C344,187 368,173 397,173 C427,173 450,187 450,204 C450,221 427,234 397,234 z" fill="#FFFFFF"/>
    <path d="M396,213 C388,213 382,207 381,200 C381,192 386,185 394,185 C401,184 408,190 408,198 C409,206 403,212 396,213 z" fill="#000000"/>
  </g>
  <g id="Eyes6" display="none">
    <path d="M302,277 C289,277 279,251 279,218 C279,185 289,158 302,158 C315,158 325,185 325,218 C325,251 315,277 302,277 z" fill="#FFFFFF"/>
    <path d="M300,219 C292,219 285,216 285,213 C285,209 292,207 300,207 C309,207 316,209 316,213 C316,216 309,219 300,219 z" fill="#000000"/>
    <path d="M393,271 C379,271 369,243 369,208 C369,174 379,146 393,146 C406,146 417,174 417,208 C417,243 406,271 393,271 z" fill="#FFFFFF"/>
    <path d="M392,215 C382,215 375,213 374,209 C374,206 381,202 391,202 C400,201 408,204 408,207 C408,211 401,214 392,215 z" fill="#000000"/>
  </g>
  <g id="Eyes7" display="none">
    <path d="M287,261 L359,135 L431,261 z" fill="#FFFFFF"/>
    <path d="M359,238 C349,238 342,232 342,224 C342,216 349,209 359,209 C368,209 375,216 375,224 C375,232 368,238 359,238 z" fill="#000000"/>
  </g>
  <g id="Eyes8" display="none">
    <path d="M267,240 L309,162 L351,240 z" fill="#FFFFFF"/>
    <path d="M309,232 C303,232 299,223 299,213 C299,202 303,194 309,194 C314,194 318,202 318,213 C318,223 314,232 309,232 z" fill="#000000"/>
    <path d="M371,240 L413,162 L456,240 z" fill="#FFFFFF"/>
    <path d="M413,226 C408,226 404,217 404,207 C404,196 408,188 413,188 C419,188 423,196 423,207 C423,217 419,226 413,226 z" fill="#000000"/>
  </g>
  <g id="Eyes9" display="none">
    <path d="M331,228 C317,228 306,218 306,204 C306,191 317,181 331,181 C345,181 356,191 356,204 C356,218 345,228 331,228 z" fill="#000000"/>
    <path d="M397,216 C383,216 372,205 372,192 C372,179 383,169 397,169 C410,169 421,179 421,192 C421,205 410,216 397,216 z" fill="#000000"/>
    <path d="M332,216 C329,216 326,213 326,209 C326,205 329,202 332,202 C336,202 339,205 339,209 C339,213 336,216 332,216 z" fill="#FFFFFF"/>
    <path d="M395,202 C392,202 390,200 390,196 C390,193 392,190 395,190 C398,190 401,193 401,196 C401,200 398,202 395,202 z" fill="#FFFFFF"/>
  </g>
  <g id="Eyes10" display="none">
    <path d="M331,228 C317,228 306,218 306,204 C306,191 317,181 331,181 C345,181 356,191 356,204 C356,218 345,228 331,228 z" fill="#000000"/>
    <path d="M397,216 C383,216 372,205 372,192 C372,179 383,169 397,169 C410,169 421,179 421,192 C421,205 410,216 397,216 z" fill="#000000"/>
    <path d="M331,218 C324,218 318,212 318,204 C318,197 324,191 331,191 C339,191 344,197 344,204 C344,212 339,218 331,218 z" fill="#FFFFFF"/>
    <path d="M395,202 C392,202 390,200 390,196 C390,193 392,190 395,190 C398,190 401,193 401,196 C401,200 398,202 395,202 z" fill="#FFFFFF"/>
    <path d="M330,210 C327,210 325,208 325,204 C325,201 327,199 330,199 C333,199 335,201 335,204 C335,208 333,210 330,210 z" fill="#000000"/>
  </g>
  <g id="Eyes11" display="none">
    <path d="M322,261 C298,261 279,242 279,218 C279,193 298,174 322,174 C346,174 365,193 365,218 C365,242 346,261 322,261 z" fill="#FFFFFF"/>
    <path d="M321,261 C318,261 315,241 315,218 C315,194 318,174 321,174 C325,174 328,194 328,218 C328,241 325,261 321,261 z" fill="#000000"/>
    <path d="M279,225 C279,221 296,216 317,213 C339,210 357,211 357,215 C358,219 341,224 319,227 C297,230 279,229 279,225 z" fill="#000000"/>
    <path d="M316,222 C315,219 317,216 319,215 C322,214 325,216 325,219 C326,221 325,224 322,225 C320,226 317,224 316,222 z" fill="#FFFFFF"/>
    <path d="M429,234 C406,234 386,214 386,190 C386,165 406,146 429,146 C453,146 473,165 473,190 C473,214 453,234 429,234 z" fill="#FFFFFF"/>
    <path d="M429,233 C425,233 422,213 422,190 C422,166 425,146 429,146 C432,146 435,166 435,190 C435,213 432,233 429,233 z" fill="#000000"/>
    <path d="M391,177 C392,173 410,176 431,183 C451,190 467,199 465,203 C464,206 446,203 426,196 C405,189 390,180 391,177 z" fill="#000000"/>
    <path d="M425,191 C424,188 426,186 428,185 C431,184 433,185 434,188 C435,191 433,193 431,194 C428,195 426,194 425,191 z" fill="#FFFFFF"/>
  </g>
  <g id="Eyes12" display="none">
    <path d="M319,230 C301,230 286,215 286,196 C286,178 301,163 319,163 C337,163 352,178 352,196 C352,215 337,230 319,230 z" fill="#FFFFFF"/>
    <path d="M294,211 L320,166 L347,211 z" fill="#000000"/>
    <path d="M322,204 C319,204 316,201 316,198 C316,194 319,191 322,191 C326,191 328,194 328,198 C328,201 326,204 322,204 z" fill="#FFFFFF"/>
    <path d="M424,226 C406,226 391,211 391,192 C391,174 406,159 424,159 C442,159 457,174 457,192 C457,211 442,226 424,226 z" fill="#FFFFFF"/>
    <path d="M404,212 L404,173 L448,173 L448,212 z" fill="#000000"/>
    <path d="M426,198 C422,198 419,196 419,192 C419,189 422,186 426,186 C430,186 433,189 433,192 C433,196 430,198 426,198 z" fill="#FFFFFF"/>
  </g>
  <g id="Eyes13">
    <path d="M416,268 C385,268 361,241 361,208 C361,175 385,148 416,148 C446,148 470,175 470,208 C470,241 446,268 416,268 z" fill="#000000"/>
    <path d="M421,244 C402,244 387,228 387,208 C387,189 402,173 421,173 C440,173 455,189 455,208 C455,228 440,244 421,244 z" fill="#FFFFFF"/>
    <path d="M418,229 C410,229 404,222 404,215 C404,207 410,200 418,200 C425,200 432,207 432,215 C432,222 425,229 418,229 z" fill="#000000"/>
  </g>
  <g id="Eyes14" display="none">
    <path d="M317,250 C292,250 272,229 272,205 C272,180 292,159 317,159 C341,159 361,180 361,205 C361,229 341,250 317,250 z" fill="#FFFFFF"/>
    <path d="M310,245 L314,213 L297,240 L311,212 L286,232 L309,210 L278,221 L308,207 L275,208 L308,204 L276,195 L308,201 L281,183 L310,199 L291,173 L312,197 L303,167 L315,196 L317,164 L318,196 L330,167 L321,197 L342,173 L323,199 L352,183 L325,201 L357,195 L326,204 L359,208 L325,207 L355,221 L324,210 L348,232 L322,212 L337,240 L320,213 L324,245 L317,213 z" fill="#000000"/>
    <path d="M430,255 C405,255 385,235 385,210 C385,185 405,164 430,164 C454,164 474,185 474,210 C474,235 454,255 430,255 z" fill="#FFFFFF"/>
    <path d="M423,250 L427,218 L409,245 L424,217 L399,237 L422,215 L391,226 L421,212 L388,213 L421,209 L389,200 L421,206 L394,188 L423,204 L404,178 L425,202 L416,172 L428,201 L430,169 L431,201 L443,172 L434,202 L455,178 L436,204 L465,188 L438,206 L470,200 L439,209 L472,213 L438,212 L468,226 L437,215 L461,237 L435,217 L450,245 L432,218 L437,250 L430,218 z" fill="#000000"/>
  </g>
  <g fill="#000000" id="Nose1">
    <path d="M355,348 C352,348 349,342 349,335 C349,328 352,322 355,322 C358,322 361,328 361,335 C361,342 358,348 355,348 z"/>
    <path d="M377,354 C374,354 372,346 372,338 C372,329 374,322 377,322 C379,322 382,329 382,338 C382,346 379,354 377,354 z"/>
  </g>
</svg>
